<svg width="212" height="110" viewBox="0 0 212 110" fill="none" xmlns="http://www.w3.org/2000/svg">
<path d="M91.015 48.015H98.19L99.485 55.995V68H92.345V54.91L91.015 48.015ZM106.835 47.42C108.748 47.42 110.382 47.805 111.735 48.575C113.088 49.345 114.115 50.43 114.815 51.83C115.538 53.23 115.9 54.8867 115.9 56.8V68H108.76V57.85C108.76 56.3567 108.375 55.2133 107.605 54.42C106.858 53.6267 105.773 53.23 104.35 53.23C103.37 53.23 102.507 53.44 101.76 53.86C101.037 54.28 100.477 54.875 100.08 55.645C99.6833 56.415 99.485 57.325 99.485 58.375L97.28 57.22C97.56 55.0967 98.155 53.3117 99.065 51.865C99.975 50.395 101.095 49.2867 102.425 48.54C103.755 47.7933 105.225 47.42 106.835 47.42ZM137.637 68L136.727 60.79L137.672 58.025L136.727 55.26L137.637 48.015H145.057L143.797 57.99L145.057 68H137.637ZM139.317 58.025C138.991 60.125 138.337 61.9683 137.357 63.555C136.401 65.1417 135.176 66.3783 133.682 67.265C132.212 68.1283 130.532 68.56 128.642 68.56C126.682 68.56 124.956 68.1283 123.462 67.265C121.992 66.3783 120.837 65.1417 119.997 63.555C119.157 61.945 118.737 60.1017 118.737 58.025C118.737 55.9017 119.157 54.0467 119.997 52.46C120.837 50.8733 121.992 49.6367 123.462 48.75C124.956 47.8633 126.682 47.42 128.642 47.42C130.532 47.42 132.212 47.8633 133.682 48.75C135.176 49.6133 136.412 50.8383 137.392 52.425C138.372 53.9883 139.014 55.855 139.317 58.025ZM125.982 58.025C125.982 59.005 126.181 59.88 126.577 60.65C126.997 61.42 127.569 62.0267 128.292 62.47C129.016 62.89 129.844 63.1 130.777 63.1C131.757 63.1 132.679 62.89 133.542 62.47C134.406 62.0267 135.164 61.42 135.817 60.65C136.471 59.88 136.961 59.005 137.287 58.025C136.961 57.0217 136.471 56.135 135.817 55.365C135.164 54.595 134.406 53.9883 133.542 53.545C132.679 53.1017 131.757 52.88 130.777 52.88C129.844 52.88 129.016 53.1017 128.292 53.545C127.569 53.9883 126.997 54.595 126.577 55.365C126.181 56.135 125.982 57.0217 125.982 58.025ZM162.355 45.53C160.978 45.53 159.987 45.7517 159.38 46.195C158.797 46.6383 158.505 47.35 158.505 48.33V68H151.33V49.555C151.33 47.6183 151.715 45.9733 152.485 44.62C153.255 43.2667 154.387 42.24 155.88 41.54C157.397 40.84 159.275 40.49 161.515 40.49C162.402 40.49 163.207 40.56 163.93 40.7C164.677 40.84 165.412 41.0383 166.135 41.295V46.02C165.552 45.8567 164.945 45.74 164.315 45.67C163.708 45.5767 163.055 45.53 162.355 45.53ZM147.27 54.56V49.065H165.855V54.56H147.27ZM163.895 54.56V49.065H168.095L171.07 42.905H175.13V48.785H183.53V54.28H175.13V59.005C175.13 60.4283 175.422 61.4433 176.005 62.05C176.588 62.6333 177.662 62.925 179.225 62.925C180.182 62.925 181.033 62.8433 181.78 62.68C182.55 62.4933 183.25 62.2483 183.88 61.945L183.915 67.405C183.168 67.685 182.223 67.93 181.08 68.14C179.96 68.3733 178.782 68.49 177.545 68.49C175.352 68.49 173.543 68.1517 172.12 67.475C170.72 66.7983 169.682 65.83 169.005 64.57C168.328 63.2867 167.99 61.7933 167.99 60.09V54.56H163.895ZM193.149 74.335C191.679 74.335 190.373 74.1483 189.229 73.775C188.086 73.425 186.978 72.8767 185.904 72.13V67.16C187.001 67.86 188.028 68.3617 188.984 68.665C189.941 68.9683 190.991 69.12 192.134 69.12C193.091 69.12 193.943 68.91 194.689 68.49C195.436 68.07 196.043 67.3 196.509 66.18L204.174 48.015H211.769L202.179 68.385C201.503 69.855 200.674 71.0217 199.694 71.885C198.738 72.7717 197.699 73.4017 196.579 73.775C195.459 74.1483 194.316 74.335 193.149 74.335ZM193.394 66.145L184.889 48.015H192.764L200.289 66.145H193.394Z" fill="white"/>
<g filter="url(#filter0_d_77_99)">
<rect x="30" y="30" width="50" height="50" rx="25" fill="#FF7C2A"/>
</g>
<path d="M35 76L42.1314 71.8737V44.9444L62.8571 57.5404V39.7323L55.9486 43.8586V45.596L35 33V76Z" fill="white"/>
<path d="M67.0914 64.0556L45.6971 51.4596V70.1364L53.0514 66.4444V62.9697L74 76V33L67.0914 37.3434V64.0556Z" fill="white"/>
<path d="M35 76L42.1314 71.8737V44.9444L62.8571 57.5404V39.7323L55.9486 43.8586V45.596L35 33V76Z" stroke="#FF7C2A" stroke-width="2"/>
<path d="M67.0914 64.0556L45.6971 51.4596V70.1364L53.0514 66.4444V62.9697L74 76V33L67.0914 37.3434V64.0556Z" stroke="#FF7C2A" stroke-width="2"/>
<defs>
<filter id="filter0_d_77_99" x="0" y="0" width="110" height="110" filterUnits="userSpaceOnUse" color-interpolation-filters="sRGB">
<feFlood flood-opacity="0" result="BackgroundImageFix"/>
<feColorMatrix in="SourceAlpha" type="matrix" values="0 0 0 0 0 0 0 0 0 0 0 0 0 0 0 0 0 0 127 0" result="hardAlpha"/>
<feOffset/>
<feGaussianBlur stdDeviation="15"/>
<feComposite in2="hardAlpha" operator="out"/>
<feColorMatrix type="matrix" values="0 0 0 0 1 0 0 0 0 0.486275 0 0 0 0 0.164706 0 0 0 1 0"/>
<feBlend mode="normal" in2="BackgroundImageFix" result="effect1_dropShadow_77_99"/>
<feBlend mode="normal" in="SourceGraphic" in2="effect1_dropShadow_77_99" result="shape"/>
</filter>
</defs>
</svg>
