<svg width="30" height="30" viewBox="0 0 30 30" fill="none" xmlns="http://www.w3.org/2000/svg">
<path d="M14.6009 21.5774L16.8119 18.7178H21.7489V9.66895H7.45312V18.7179H12.3899L14.6009 21.5774ZM16.8823 13.3191H18.5933V15.0301H16.8823V13.3191ZM13.7454 13.3191H15.4564V15.0301H13.7454V13.3191ZM12.3689 15.0301H10.6578V13.3191H12.3689V15.0301Z" fill="white"/>
<path d="M23.5181 25.6656H17.6557V23.8513H14.1455C12.7119 23.8513 11.5455 25.0176 11.5455 26.4513V26.591C11.5455 28.0247 12.7119 29.191 14.1455 29.191H17.6557V27.3766H25.2291V20.862L26.2804 20.8574C27.8903 20.8574 29.2 19.5477 29.2 17.9379V13.7793C29.2 12.1694 27.8903 10.8597 26.2804 10.8597H25.2291V8.94506C25.2291 4.01274 21.2163 0 16.284 0H12.9173C7.98493 0 3.97219 4.01269 3.97219 8.94506V10.868H2.91956C1.30967 10.8679 0 12.1777 0 13.7875V17.9461C0 19.556 1.30967 20.8657 2.91956 20.8657H5.6832V8.94501C5.6832 4.95616 8.92841 1.71089 12.9173 1.71089H16.2841C20.273 1.71089 23.5182 4.9561 23.5182 8.94501V25.6656H23.5181Z" fill="white"/>
</svg>
