<svg width="34" height="34" viewBox="0 0 34 34" fill="none" xmlns="http://www.w3.org/2000/svg">
<path d="M2.0625 19.354C1.4757 19.354 1 19.8297 1 20.4165C1 21.0033 1.4757 21.479 2.0625 21.479H6.3125C6.8993 21.479 7.375 21.0033 7.375 20.4165C7.375 19.8297 6.8993 19.354 6.3125 19.354H2.0625Z" fill="white"/>
<path d="M2.0625 23.604C1.4757 23.604 1 24.0797 1 24.6665C1 25.2533 1.4757 25.729 2.0625 25.729H10.5625C11.1493 25.729 11.625 25.2533 11.625 24.6665C11.625 24.0797 11.1493 23.604 10.5625 23.604H2.0625Z" fill="white"/>
<path d="M5.04971 4.96093L4.89551 4.83333C5.33241 4.232 5.79736 3.78969 6.39869 3.35279C8.26066 2 10.9167 2 16.2288 2H19.0622C24.3742 2 27.0304 2 28.8923 3.35279C29.4937 3.78969 29.9219 4.18354 30.3588 4.78487L30.1809 4.96183L26.9114 8.23136C24.5289 10.6137 22.8162 12.3232 21.3389 13.4505C19.8861 14.5589 18.7866 15.0034 17.6454 15.0034C16.504 15.0034 15.4045 14.5589 13.9517 13.4505C12.4744 12.3232 10.7616 10.6137 8.37927 8.23136L5.62632 5.47841L5.04971 4.96093Z" fill="white"/>
<path d="M3.47949 14.75C3.47949 11.0101 3.47949 8.58669 3.95155 6.83004L4.16495 7.02156L6.9348 9.7914C9.24718 12.1038 11.0594 13.916 12.6634 15.1398C14.3052 16.3924 15.8532 17.1284 17.646 17.1284C19.4387 17.1284 20.9868 16.3924 22.6286 15.1398C24.2325 13.916 26.0447 12.1038 28.3572 9.79142L31.336 6.8125C31.8128 8.57054 31.8128 10.9976 31.8128 14.75C31.8128 20.062 31.8128 22.7181 30.4601 24.5801C30.0232 25.1814 29.4943 25.7103 28.8929 26.1472C27.031 27.5 24.3749 27.5 19.0628 27.5H16.2295C14.206 27.5 12.5679 27.5 11.2122 27.4252C12.464 27.1316 13.3962 26.0079 13.3962 24.6666C13.3962 23.1018 12.1276 21.8333 10.5628 21.8333H8.76712C9.00819 21.4165 9.14616 20.9327 9.14616 20.4166C9.14616 18.8518 7.87763 17.5833 6.31283 17.5833H3.48971C3.47949 16.7317 3.47949 15.7919 3.47949 14.75Z" fill="white"/>
</svg>
