<svg width="18" height="18" viewBox="0 0 18 18" fill="none" xmlns="http://www.w3.org/2000/svg">
<path d="M17.5631 7.93948L16.3354 6.71203C16.044 6.42066 15.8053 5.84487 15.8053 5.43194V3.69602C15.8053 2.87025 15.1307 2.19566 14.3051 2.19522H12.5685C12.1561 2.19522 11.5796 1.95602 11.2882 1.66487L10.0608 0.437418C9.47753 -0.145806 8.5226 -0.145806 7.93937 0.437418L6.71192 1.66574C6.42029 1.95711 5.84317 2.19566 5.43161 2.19566H3.69569C2.87102 2.19566 2.19555 2.87025 2.19555 3.69602V5.43198C2.19555 5.84328 1.95683 6.42088 1.66541 6.71208L0.437748 7.93953C-0.145916 8.52275 -0.145916 9.47768 0.437748 10.0618L1.66541 11.2893C1.957 11.5806 2.19555 12.158 2.19555 12.5694V14.3053C2.19555 15.1302 2.87102 15.8057 3.69569 15.8057H5.43165C5.8441 15.8057 6.42055 16.0444 6.71197 16.3356L7.93941 17.5635C8.52264 18.1463 9.47757 18.1463 10.0608 17.5635L11.2882 16.3356C11.5799 16.0442 12.1561 15.8057 12.5686 15.8057H14.3052C15.1307 15.8057 15.8053 15.1302 15.8053 14.3053V12.5694C15.8053 12.1563 16.0443 11.5805 16.3355 11.2893L17.5631 10.0618C18.1459 9.47768 18.1459 8.52271 17.5631 7.93948ZM7.80933 12.3756L4.49966 9.06545L5.56037 8.00496L7.8096 10.2542L12.4396 5.62526L13.5001 6.68575L7.80933 12.3756Z" fill="#FF0066"/>
</svg>
