<svg width="24" height="24" viewBox="0 0 24 24" fill="none" xmlns="http://www.w3.org/2000/svg">
<path fill-rule="evenodd" clip-rule="evenodd" d="M7 21.25C6.58579 21.25 6.25 20.9142 6.25 20.5V3.5C6.25 3.0858 6.58579 2.75 7 2.75H17C17.4142 2.75 17.75 3.0858 17.75 3.5V20.5C17.75 20.9142 17.4142 21.25 17 21.25H7ZM4.75 20.5C4.75 21.7426 5.75736 22.75 7 22.75H17C18.2426 22.75 19.25 21.7426 19.25 20.5V3.5C19.25 2.2574 18.2426 1.25 17 1.25H7C5.75736 1.25 4.75 2.2574 4.75 3.5V20.5Z" fill="white"/>
<path fill-rule="evenodd" clip-rule="evenodd" d="M10.25 19C10.25 19.4142 10.5858 19.75 11 19.75H13C13.4142 19.75 13.75 19.4142 13.75 19C13.75 18.5858 13.4142 18.25 13 18.25H11C10.5858 18.25 10.25 18.5858 10.25 19Z" fill="white"/>
<path fill-rule="evenodd" clip-rule="evenodd" d="M9.25 5C9.25 5.4142 9.58579 5.75 10 5.75H14C14.4142 5.75 14.75 5.4142 14.75 5C14.75 4.5858 14.4142 4.25 14 4.25H10C9.58579 4.25 9.25 4.5858 9.25 5Z" fill="white"/>
</svg>
